<?xml version="1.0" encoding="UTF-8"?>
<svg xmlns="http://www.w3.org/2000/svg" id="Layer_1" data-name="Layer 1" viewBox="0 0 24 24">
  <path d="m22,4.5v15c0,2.481-2.019,4.5-4.5,4.5H6.5c-2.481,0-4.5-2.019-4.5-4.5V4.5C2,2.019,4.019,0,6.5,0h3c.276,0,.5.224.5.5s-.224.5-.5.5h-3c-1.93,0-3.5,1.57-3.5,3.5v15c0,1.93,1.57,3.5,3.5,3.5h11c1.93,0,3.5-1.57,3.5-3.5V4.5c0-1.246-.671-2.408-1.75-3.032-.239-.138-.321-.444-.182-.683.137-.239.443-.323.683-.182,1.388.802,2.25,2.295,2.25,3.897Zm-4.5,14.5H6.5c-.276,0-.5.224-.5.5s.224.5.5.5h11c.276,0,.5-.224.5-.5s-.224-.5-.5-.5Zm0-3H6.5c-.276,0-.5.224-.5.5s.224.5.5.5h11c.276,0,.5-.224.5-.5s-.224-.5-.5-.5Zm-6-5c.276,0,.5-.224.5-.5V3.5c0-1.378,1.122-2.5,2.5-2.5s2.5,1.122,2.5,2.5v8.5c0,.551-.449,1-1,1s-1-.449-1-1V3.5c0-.276-.224-.5-.5-.5s-.5.224-.5.5v8.5c0,1.103.897,2,2,2s2-.897,2-2V3.5c0-1.93-1.57-3.5-3.5-3.5s-3.5,1.57-3.5,3.5v7c0,.276.224.5.5.5Zm-5,3h5c.276,0,.5-.224.5-.5s-.224-.5-.5-.5h-5c-.276,0-.5.224-.5.5s.224.5.5.5Z"/>
</svg>
